<?xml version="1.0" encoding="utf-8"?>
<!-- Generator: Adobe Illustrator 16.0.4, SVG Export Plug-In . SVG Version: 6.00 Build 0)  -->
<!DOCTYPE svg PUBLIC "-//W3C//DTD SVG 1.1 Tiny//EN" "http://www.w3.org/Graphics/SVG/1.1/DTD/svg11-tiny.dtd">
<svg version="1.1" baseProfile="tiny" xmlns="http://www.w3.org/2000/svg" xmlns:xlink="http://www.w3.org/1999/xlink" x="0px"
	 y="0px" width="100%" height="30vh" viewBox="0 0 620.862 307.89" xml:space="preserve">
<g id="sal-outline" class="sal-flag">
	<path fill="none" stroke="#D9853B" stroke-width="6" stroke-miterlimit="10" d="M243.862-5.276c4,4.5-0.644,6.942-1.651,7.457
		c-12.235,6.243-49.539,6.18-69.575,8.395c-27.879,3.082-38.73,19.122-45.213,37.403c-10.781,30.405,12.267,51.393,5.412,64.648
		c0,0-98.203,79.752-104.129,90.402c-5.779,10.384-6.414,35.403-4.669,41.452c4.331,15.024,26.092,28.659,48.982,21.291
		c22.894-7.365,62-44.83,62-44.83s2.235-1.592,5.677-4.176c8.121-6.101,22.96-17.739,31.06-27.099
		c7.089-8.196,32.181-30.523,35.67-36.815c3.49-6.29,3.902-10.797,2.809-17.67c-1.003-6.316-6.32-17.418-11.306-24.372
		c-12.922-18.035-41.726-16.865-46.326-13.511c-0.704,0.512-1.41,1.028-2.117,1.546c0,0-17.374-66.841,39.936-67.784
		c12.901-0.212,24.636,10.919,35.012,21.044c5.044,4.918,19.502,11.75,43.764-2.467c7.803-4.573,20.481-11.192,44.765,22.685
		c12.222,17.05,21.999,20.635,41.445,10.775c4.651-2.358,26.644-3.686,36.236,11.829c7.394,11.955,12.321,51.971-13.647,60.973
		c-23.169,8.03-35.68-9.021-52.334,1.274c-16.651,10.298-6.221,39.527-6.221,54.915"/>
	<path fill="#E8921A" stroke="#522408" stroke-width="6" stroke-miterlimit="10" d="M125.325,118.152"/>
</g>
<g id="sal-afm" class="fade-in one">
	<path fill="#ECA02D" stroke="#BD6406" stroke-width="6" stroke-miterlimit="10" d="M28.705,203.029
		c-5.779,10.384-6.414,35.403-4.669,41.452c4.331,15.024,26.092,28.659,48.982,21.291c22.894-7.365,62-44.83,62-44.83
		s2.235-1.592,5.677-4.176c8.121-6.101,22.96-17.739,31.06-27.099c7.089-8.196,32.181-30.523,35.67-36.815
		c3.49-6.29,3.902-10.797,2.809-17.67c-1.003-6.316-6.32-17.418-11.306-24.372c-12.922-18.035-41.726-16.865-46.326-13.511
		C99.529,135.968,35.331,191.122,28.705,203.029z"/>
	<polyline fill="#E8921A" stroke="#522408" stroke-miterlimit="10" points="140.417,215.287 155.782,252.783 138.122,216.996 	"/>
	<polyline fill="#E8921A" stroke="#522408" stroke-miterlimit="10" points="199.039,113.689 224.945,97.669 202.353,118.128 	"/>
	<polyline fill="#E8921A" stroke="#522408" stroke-miterlimit="10" points="203.056,119.268 224.209,112.704 204.288,121.258 	"/>
	<polyline fill="#E8921A" stroke="#522408" stroke-miterlimit="10" points="207.066,126.265 226.956,129.873 210.399,131.657 	"/>
	<path fill="#E8921A" stroke="#522408" stroke-width="6" stroke-miterlimit="10" d="M125.325,118.152"/>
	<polyline fill="#E8921A" stroke="#522408" stroke-miterlimit="10" points="122.101,120.766 103.678,109.496 126.113,119.426 	"/>
	<polyline fill="#E8921A" stroke="#522408" stroke-miterlimit="10" points="191.73,104.063 203.145,91.372 189.764,102.462 	"/>
	<polyline fill="#E8921A" stroke="#522408" stroke-miterlimit="10" points="61.64,266.18 64.167,288.28 55.857,265.835 	"/>
	<polyline fill="#E8921A" stroke="#522408" stroke-miterlimit="10" points="58.578,173.448 49.041,144.757 55.976,175.058 	"/>
	<polyline fill="#E8921A" stroke="#522408" stroke-miterlimit="10" points="28.829,207.202 10.287,203.31 27.292,210.631 	"/>
	<polyline fill="#E8921A" stroke="#522408" stroke-miterlimit="10" points="25.621,219.447 6.243,208.704 26.49,216.466 	"/>
	<polyline fill="#E8921A" stroke="#522408" stroke-miterlimit="10" points="25.742,241.162 2.081,238.726 26.476,244.298 	"/>
	<polyline fill="#E8921A" stroke="#522408" stroke-miterlimit="10" points="178.985,180.419 198.791,191.242 180.871,178.567 	"/>
	<polyline fill="#E8921A" stroke="#522408" stroke-miterlimit="10" points="136.232,108.136 107.938,93.315 131.462,111.083 	"/>
	<polyline fill="#E8921A" stroke="#522408" stroke-miterlimit="10" points="86.504,151.01 60.527,136.18 83.743,153.066 	"/>
	<path fill="#FEFB91" d="M39.051,241.902c-3.646-3.027,3.167,7.979,1.78,12.107c-0.937,2.783,22.285,6.935,29.209,4.444
		c7.084-2.547,33.147-20.851,37.937-27.108c3.525-4.607,6.133-2.332,12.031-5.844c5.894-3.509,16.606-14.173,16.606-14.173
		l23.78-20.542c0,0,4.557-11.842,15.91-15.337c4.656-1.43-0.228-7.33,3.209-9.31c9.145-5.268,11.583-9.265,19.277-14.319
		c7.698-5.057-1.252-30.58-5.272-30.326c-4.02,0.253-0.482,4.151-5.729,13.168c-5.248,9.016-13.407,13.319-13.407,13.319
		s-14.92,11.51-19.018,14.425c-4.101,2.92-11.375,4.202-17.136,7.93c-2.864,1.851-1.508,12.773-5.392,19.278
		c-3.932,6.584-10.626,6.526-13.088,8.747c-2.465,2.218,4.38,3.369-8.222,10.452c-6.04,3.391-8.814-0.457-19.455,6.836
		c-10.64,7.291-7.619,10.528-10.716,14.65C75.693,237.84,49.968,250.972,39.051,241.902z"/>
	<path fill="#522408" d="M124.964,102.721l0.308,0.493l0.545-0.267l0.544-0.266l0.765,1.236l0.762,1.236l-0.48,0.368l-0.482,0.37
		l0.534,0.935c0.517,0.904,0.564,0.96,2.066,2.124c0.999,0.763,1.521,1.238,1.496,1.338c-0.035,0.149-7.224,5.989-7.845,6.387
		c-0.167,0.103-0.402,0.064-0.776-0.104c-0.531-0.238-0.548-0.243-0.463,0.031c0.072,0.256,0.05,0.242-0.155-0.062
		c-0.329-0.491-0.659-0.586-1.115-0.307l-0.369,0.229l0.319,0.515l0.317,0.515l-0.566,0.35l-0.565,0.35l-0.32-0.515l-0.318-0.514
		l-0.461,0.286l-0.465,0.287l1.036,0.64c1.013,0.625,1.037,0.64,0.837,0.821c-0.115,0.113-1.056,0.895-2.1,1.739
		c-4.828,3.925-14.205,11.814-20.876,17.548c-3.209,2.75-11.72,10.178-12.041,10.489c-0.169,0.162-0.416,0.058-2.113-0.913
		c-1.878-1.059-1.934-1.082-2.224-0.858c-0.289,0.221-0.293,0.211-0.652-0.294l-0.36-0.519l-0.556,0.304l-0.552,0.298l-0.4-0.58
		l-0.396-0.565l-0.606,0.374l-0.617,0.385l0.529,0.854c0.508,0.822,0.579,0.892,2.576,2.347c1.135,0.821,2.053,1.546,2.03,1.602
		c-0.021,0.059-0.839,0.719-1.829,1.462c-6.034,4.554-15.457,12.187-20.76,16.819c-0.742,0.644-1.373,1.162-1.405,1.154
		c-0.067-0.016-0.717-1.734-0.776-2.082c-0.03-0.138-0.14-0.113-0.451,0.078l-0.419,0.261l-0.401-0.579l-0.395-0.566l-0.555,0.3
		c-0.51,0.275-0.567,0.28-0.754,0.041c-0.137-0.171-0.021,0.595,0.385,2.351c0.319,1.44,0.574,2.632,0.576,2.661
		c-0.013,0.022-0.945,0.882-2.066,1.904c-13.344,12.062-21.883,21.882-25.467,29.292c-0.372,0.756-0.699,1.399-0.729,1.419
		c-0.064,0.039-5.711-1.064-6.362-1.247c-0.256-0.067-0.527-0.044-0.712,0.071c-0.276,0.172-0.282,0.188,0.061,0.744l0.348,0.567
		l0.62-0.384l0.617-0.381l0.345,0.556l0.351,0.567l0.565-0.308l0.553-0.298l0.732,1.182l0.731,1.186l-0.462,0.355l-0.451,0.351
		l0.889,0.405c0.493,0.221,0.908,0.433,0.934,0.474c0.025,0.042-0.149,0.82-0.387,1.721c-0.244,0.917-0.483,2.05-0.544,2.526
		c-0.104,0.89-0.246,1.121-0.544,0.892c-0.157-0.116-0.168-0.109-0.122,0.104c0.038,0.175-0.054,0.302-0.404,0.519
		c-0.239,0.165-0.833,0.561-1.332,0.883l-0.883,0.572l0.495,0.293l0.507,0.298l-0.209-0.412l-0.204-0.398l0.504-0.312l0.496-0.306
		l0.327,0.438l0.317,0.444l-0.484,0.299c-0.279,0.172-0.481,0.325-0.463,0.356c0.02,0.032,0.246,0.19,0.515,0.35l0.472,0.279
		l-0.117,0.527c-0.096,0.415-0.059,0.618,0.152,0.958l0.269,0.432l-0.454,0.279c-0.432,0.268-0.47,0.348-0.634,1.276
		c-0.274,1.607-0.44,3.799-0.305,4.016c0.063,0.103,0.058,0.234-0.025,0.285c-0.184,0.114-0.237,1.826-0.143,4.856
		c0.067,2.292,0.057,2.253,0.929,3.964l0.819,1.571l-0.558,0.344l-0.545,0.339l0.382,0.616c0.382,0.618,0.382,0.618,0.084,0.802
		c-0.277,0.172-0.288,0.25-0.134,0.867c0.089,0.372,0.125,0.705,0.062,0.744c-0.069,0.026-0.911-0.021-1.872-0.124
		c-0.953-0.093-1.744-0.156-1.76-0.135c0.003,0.027,0.278,0.426,0.614,0.901l0.62,0.841l1.113-0.686l1.118-0.695l0.352,0.566
		l0.351,0.565l0.616-0.385l0.618-0.379l0.586,0.947c0.325,0.526,0.857,1.32,1.186,1.756l0.591,0.817l0.483-0.298l0.495-0.306
		l-0.661-1.229l-0.661-1.229l0.606-0.375l0.609-0.376l-0.388-0.628l-0.396-0.637l0.838-0.42c0.449-0.236,0.975-0.515,1.169-0.637
		l0.34-0.209l0.352,0.564l0.348,0.568l0.618-0.383l0.62-0.381l0.343,0.555l0.343,0.557l1.176-0.63l1.18-0.627l0.588,0.958
		c0.32,0.515,0.834,1.277,1.134,1.69l0.561,0.749l0.545-0.337l0.555-0.343l-0.35-0.566l-0.341-0.556l0.565-0.395l0.58-0.4
		l-0.338-0.616l-0.332-0.606l0.554-0.341l0.566-0.352l-0.351-0.566l-0.355-0.576l0.606-0.332l0.615-0.34l0.338,0.545l0.331,0.536
		l0.606-0.375l0.609-0.376l0.506,0.954c0.262,0.521,0.744,1.303,1.069,1.73l0.569,0.785l1.253-0.646l1.25-0.647l0.337,0.546
		l0.33,0.536l0.597-0.368l0.589-0.365l0.381,0.619l0.381,0.619l0.628-0.391l0.629-0.388l0.654,1.219l0.646,1.208l1.566-0.897
		c0.851-0.485,2.201-1.317,2.996-1.852l1.43-0.955l-0.384-0.618l-0.382-0.618l0.992-0.512c0.533-0.288,1.871-1.069,2.972-1.752
		l1.988-1.23l0.698,1.132l0.7,1.133l1.75-1.083l1.75-1.081l-0.318-0.514l-0.311-0.506l-1.173,0.682l-1.182,0.687l-0.401-0.575
		l-0.395-0.567L63.1,232.08l-0.565,0.35l-0.382-0.616l-0.382-0.619l0.566-0.349l0.566-0.351l-0.346-0.555l-0.34-0.556l-1.176,0.628
		l-1.18,0.628l-0.554-0.896c-0.299-0.482-0.813-1.248-1.147-1.695l-0.583-0.805l-0.495,0.305l-0.503,0.312l-0.38-0.619l-0.382-0.616
		l-2.376,1.497l-2.379,1.512l0.295,0.543l0.302,0.555l-1.132,0.799c-0.623,0.444-1.693,1.104-2.368,1.464l-1.228,0.66l-1.076-1.739
		l-1.074-1.74l0.616-0.383l0.616-0.382l-0.381-0.616l-0.381-0.618l0.568-0.35l0.565-0.351l-0.351-0.566l-0.35-0.564l-0.565,0.349
		l-0.567,0.35l-0.381-0.618l-0.382-0.616l1.751-1.083l1.75-1.081l-0.702-1.133l-0.701-1.132l-0.565,0.351l-0.567,0.348l-0.768-1.244
		l-0.777-1.255l0.893-0.465c0.489-0.246,1.322-0.717,1.846-1.042l0.947-0.585l0.344,0.555l0.345,0.557l1.177-0.629l1.175-0.627
		l0.345,0.554c0.191,0.311,0.394,0.523,0.445,0.493c0.063-0.038,0.244,0.164,0.414,0.441l0.319,0.513l0.513-0.272l0.504-0.269
		l0.392,0.566l0.401,0.579l0.554-0.344l0.566-0.349l0.381,0.616l0.383,0.618l0.619-0.382l0.617-0.381l0.35,0.567l0.351,0.564
		l0.564-0.347l0.569-0.352l0.76,1.233l0.765,1.236l0.565-0.349l0.57-0.352l0.31,0.504l0.319,0.516l-0.51,0.372
		c-0.316,0.224-0.101,0.118,0.571-0.27c0.612-0.349,1.424-0.779,1.82-0.968l0.714-0.343l-0.529,0.341l-0.531,0.359l0.286,0.464
		l0.287,0.462l0.556-0.343c0.689-0.427,0.741-0.388,1.457,0.977l0.552,1.054l0.587-0.363l0.575-0.357l-0.878-1.421
		c-0.489-0.792-1.113-1.87-1.4-2.405l-0.517-0.989l0.494-0.304l0.506-0.313l-0.35-0.567l-0.35-0.566l-1.752,1.081l-1.758,1.09
		l-0.339-0.617l-0.329-0.604l0.525-0.371l0.517-0.36l-0.35-0.565l-0.345-0.557l-1.131,0.702l-1.121,0.691l-0.402-0.578l-0.394-0.567
		l-0.554,0.3l-0.566,0.307l-0.337-0.545l-0.337-0.546l0.714-0.527c0.382-0.277,1.438-0.916,2.322-1.421l1.596-0.915l0.727,1.173
		l0.717,1.163l2.367-1.463l2.369-1.463l-0.731-1.185l-0.732-1.184l-0.556,0.343l-0.546,0.338l-0.782-1.081l-0.765-1.078
		l-0.545,0.293l-0.555,0.3l-0.4-0.578l-0.392-0.569l0.628-0.388l0.618-0.381l0.35,0.567l0.348,0.565l0.568-0.35l0.565-0.349
		l-0.35-0.565l-0.348-0.567l0.594-0.369l0.588-0.363l0.332,0.537l0.337,0.546l1.271-0.66l1.261-0.652l0.346,0.555l0.348,0.567
		l-0.591,0.31l-0.585,0.318l0.364,0.587l0.368,0.593l0.557-0.341l0.564-0.351l0.364,0.517l0.367,0.526l0.597-0.325l0.606-0.332
		l-0.629-1.177l-0.627-1.176l0.515-0.362l0.504-0.356l-0.297-0.6l-0.299-0.596l1.03-0.636l1.03-0.639l0.401,0.534l0.402,0.535
		l0.616-0.337l0.603-0.331l0.728,1.17l0.734,1.186l-0.568,0.35l-0.569,0.351l0.351,0.565l0.351,0.565l-1.12,0.694l-1.125,0.696
		l0.656,1.216l0.647,1.207l-0.975,0.702c-0.539,0.393-1.046,0.704-1.117,0.705c-0.084-0.003,0,0.229,0.209,0.568l0.359,0.578
		l-1.235,0.763l-1.237,0.763l-0.349-0.564l-0.351-0.568l-0.514,0.318l-0.513,0.319l-0.333-0.535
		c-0.653-1.061-0.321-0.357,0.614,1.314l0.975,1.716l1.841-1.139l1.854-1.146l-0.339-0.616l-0.331-0.606l0.514-0.318l0.515-0.318
		l0.393,0.567l0.4,0.577l0.588-0.362l0.586-0.363l-0.332-0.536l-0.337-0.543l1.644-1.118c0.893-0.625,1.643-1.157,1.658-1.184
		c0.007-0.03-0.438-0.867-0.978-1.856c-0.552-0.983-0.817-1.529-0.611-1.215l0.378,0.59l0.466-0.286l0.461-0.287l-0.349-0.566
		l-0.35-0.565l1.235-0.765l1.233-0.762l0.733,1.183l0.726,1.173l-1.186,0.776l-1.194,0.78l0.332,0.607l0.338,0.617l-0.506,0.311
		l-0.512,0.317l0.349,0.567l0.349,0.565l2.914-1.802l2.902-1.794l-0.33-0.537l-0.336-0.545l1.157-0.842l1.153-0.828l-0.343-0.556
		l-0.346-0.555l-0.615,0.381l-0.62,0.38l-0.349-0.565l-0.35-0.564l-0.569,0.35l-0.563,0.348l-0.4-0.649l-0.397-0.636l0.577-0.312
		l0.592-0.31l-0.347-0.625l-0.337-0.616l0.526-0.369l0.519-0.362l-0.354-0.566l-0.342-0.557l0.667-0.414l0.669-0.414l-0.336-0.546
		l-0.345-0.556l1.743-1.161c0.942-0.64,2.251-1.493,2.889-1.886l1.153-0.713l-0.311-0.504l-0.312-0.504l-1.229,0.658l-1.238,0.667
		l-0.332-0.606l-0.327-0.596l1.146-0.751l1.132-0.743l-0.342-0.554l-0.352-0.568l-0.567,0.351l-0.564,0.35l-1.112-1.801
		l-1.117-1.801l0.566-0.35l0.557-0.345l-0.689-1.183l-0.682-1.17l0.58-0.401l0.566-0.395l-0.343-0.554l-0.344-0.556l0.578-0.399
		l0.568-0.395l-0.332-0.535l-0.323-0.525l1.088-0.774l1.086-0.771l-0.336-0.475l-0.34-0.458l0.981-0.692
		c0.528-0.385,1.837-1.279,2.911-1.985l1.933-1.296l-0.274-0.442l-0.279-0.453l-1.166,0.69c-0.646,0.388,0.122-0.145,1.717-1.176
		c1.591-1.039,2.932-1.883,2.998-1.895c0.054-0.003,0.412,0.502,0.797,1.131l0.695,1.119l1.162-0.717l1.154-0.712l-0.323-0.528
		l-0.331-0.535l0.563-0.349l0.569-0.349l0.361,0.515l0.354,0.507l1.184-0.732l1.175-0.725l-0.312-0.504
		c-0.18-0.289-0.291-0.561-0.258-0.623c0.033-0.064,0.415-0.343,0.856-0.617c0.452-0.28,1.154-0.757,1.57-1.071l0.757-0.553
		l-0.275-0.439l-0.273-0.445l-1.127,0.64l-1.132,0.656l1.153-0.738l1.138-0.735l0.732,1.184l0.733,1.184l-0.568,0.35l-0.555,0.344
		l0.334,0.604l0.337,0.617l-0.547,0.338l-0.533,0.33l0.71,1.153l0.715,1.154l0.616-0.34l0.606-0.333l0.328,0.51
		c0.183,0.27,0.368,0.497,0.414,0.483c0.046,0.001,1.08-0.625,2.295-1.375l2.211-1.368l-0.699-1.132l-0.702-1.132l-0.563,0.348
		l-0.567,0.351l-0.73-1.185l-0.733-1.182l1.226-0.73c0.666-0.397,0.957-0.55,0.651-0.33l-0.572,0.409l0.298,0.485l0.3,0.483
		l1.749-1.038c0.96-0.567,1.81-1.007,1.889-0.998c0.073,0.026,0.249,0.245,0.387,0.513l0.245,0.491l1.26-0.681l1.271-0.685
		l0.269,0.53l0.281,0.525l0.597-0.37l0.588-0.362l-0.318-0.515l-0.32-0.515l-0.553,0.343l-0.556,0.343l-0.768-1.078
		c-0.421-0.592-0.766-1.147-0.762-1.234c-0.009-0.082,0.248-0.311,0.557-0.5l0.557-0.344l-0.352-0.569l-0.354-0.574l0.615-0.339
		l0.606-0.333l0.355,0.506l0.359,0.516l1.169-0.621l1.165-0.622l0.36,0.518l0.358,0.505l2.407-1.444l2.399-1.457l-0.668-1.153
		l-0.675-1.162l1.088-0.771c0.604-0.43,2.14-1.422,3.442-2.212l2.34-1.437l-0.337-0.544l-0.344-0.557l0.597-0.368l0.588-0.365
		l0.687,1.113c0.377,0.606,0.85,1.395,1.045,1.76l0.375,0.651l-0.515,0.359l-0.527,0.368l0.331,0.607l0.34,0.616l-0.557,0.343
		l-0.566,0.352l0.701,1.13l0.699,1.133l0.6-0.37l0.584-0.363l-0.342-0.484l-0.355-0.479l1.149-0.811
		c0.635-0.449,1.694-1.104,2.369-1.464l1.217-0.653l0.759,1.065l0.766,1.079l0.607-0.334l0.595-0.325l0.339,0.502
		c0.183,0.272,0.504,0.771,0.7,1.091l0.381,0.59l0.544-0.338l0.537-0.331l-1.745-2.821c-0.954-1.543-1.899-3.121-2.093-3.5
		l-0.354-0.69l1.098-0.753l1.103-0.75l-0.677-1.163l-0.681-1.171l1.129-0.8l1.137-0.801l-0.31-0.505l-0.306-0.496l-1.225,0.716
		l-1.233,0.72l-0.359-0.56l-0.355-0.549l-0.474,0.336c-0.567,0.395-0.7,0.362-1.127-0.327l-0.299-0.484l-0.575,0.355l-0.567,0.351
		l0.337,0.502c0.194,0.264,0.333,0.535,0.327,0.596c-0.022,0.057-0.589,0.406-1.272,0.772l-1.255,0.661l-0.263-0.52l-0.281-0.523
		l-0.485,0.301c-0.792,0.49-0.807,0.485-1.431-0.523c-0.298-0.485-0.754-1.285-1.003-1.757l-0.441-0.878l0.859-0.632
		c0.468-0.348,1.25-0.832,1.731-1.07l0.876-0.442l0.338,0.545c0.184,0.299,0.407,0.543,0.478,0.544
		c0.081-0.009,0.283,0.224,0.45,0.491l0.303,0.495l1.002-0.521c0.532-0.286,1.415-0.817,1.937-1.17
		c0.522-0.35,1.406-0.924,1.955-1.278l1.003-0.636l-0.357-0.53l-0.364-0.517l2.308-1.425l2.315-1.431l0.741,1.134l0.753,1.145
		l-0.566,0.349l-0.565,0.349l0.712,1.225l0.721,1.232l-0.502,0.339c-0.27,0.182-1.045,0.677-1.707,1.084l-1.208,0.76l0.359,0.577
		l0.348,0.568l0.532-0.359l0.52-0.36l0.423,0.615l0.426,0.62l0.615-0.38l0.629-0.388l0.276,0.541l0.287,0.53l0.598-0.367
		l0.608-0.377l-0.353-0.476l-0.343-0.485l1.106-0.785l1.111-0.786l-0.294-0.546l-0.299-0.553l0.534-0.4l0.534-0.402l-1.406-2.316
		c-0.762-1.281-1.386-2.362-1.377-2.411c0.005-0.043,0.794-0.561,1.734-1.156l1.723-1.081l-0.351-0.634l-0.352-0.637l1.735-1.061
		l1.747-1.063l-0.649-1.208l-0.652-1.22l0.555-0.342l0.556-0.344l-0.343-0.554l-0.335-0.548l0.829-0.613
		c0.464-0.329,1.248-0.812,1.748-1.082l0.92-0.469l0.687,1.112l0.688,1.111l-0.515,0.361l-0.526,0.368l0.338,0.548l0.335,0.545
		l1.186-0.663l1.185-0.659l-0.333-0.609l-0.332-0.604l0.509-0.328c0.281-0.191,0.783-0.528,1.137-0.762l0.625-0.413l-0.349-0.568
		l-0.357-0.577l0.614-0.336l0.608-0.333l0.699,1.133l0.703,1.132l-0.572,0.392l-0.574,0.403l0.372,0.606l0.382,0.618l-0.534,0.331
		l-0.544,0.335l0.67,1.153l0.668,1.15l0.576-0.356l0.566-0.349l-0.313-0.505l-0.306-0.494l0.902-0.657
		c0.497-0.351,1.279-0.878,1.731-1.157l0.837-0.515l-0.381-0.55l-0.392-0.539l0.627-0.387l0.629-0.388l0.313,0.504
		c0.188,0.308,0.271,0.556,0.218,0.631c-0.059,0.064,0.52-0.22,1.28-0.621l1.384-0.755l0.279,0.523l0.27,0.53l0.579-0.357
		l0.576-0.355l0.763,1.235l0.764,1.235l-0.565,0.349l-0.558,0.344l0.332,0.606l0.339,0.616l-0.568,0.394l-0.579,0.4l0.694,1.121
		l0.701,1.133l0.555-0.344l0.566-0.348l-0.308-0.566l-0.299-0.556l0.579-0.399l0.568-0.392l-0.338-0.545l-0.338-0.547l0.903-0.655
		c0.496-0.351,1.291-0.885,1.773-1.183l0.864-0.536l-0.358-0.491l-0.351-0.494l0.588-0.364c0.317-0.197,0.587-0.432,0.584-0.503
		c-0.008-0.081,0.247-0.294,0.533-0.47l0.535-0.332l-0.316-0.445l-0.322-0.427l-0.547,0.294c-0.308,0.163,0.422-0.36,1.631-1.166
		c1.193-0.807,2.288-1.498,2.438-1.533c0.234-0.06,0.299-0.002,0.562,0.475l0.301,0.554l0.506-0.31
		c0.288-0.18,0.571-0.297,0.648-0.26c0.076,0.025,0.446,0.534,0.815,1.132l0.667,1.081l0.558-0.316
		c0.297-0.168,0.856-0.46,1.236-0.651l0.684-0.321l0.343,0.554l0.344,0.559l1.131-0.702l1.134-0.7l-0.351-0.567l-0.343-0.556
		l0.578-0.401l0.569-0.391l-0.326-0.595l-0.332-0.607l1.076-0.765l1.077-0.766l-0.298-0.556l-0.295-0.544l0.581-0.399l0.568-0.392
		L195,110.252l-0.382-0.619l0.565-0.349l0.566-0.352l-0.314-0.515l-0.322-0.515l0.556-0.344l0.556-0.341l0.772,1.086l0.783,1.081
		l0.599-0.367l0.607-0.376l0.698,1.133c0.676,1.09,0.711,1.125,0.917,0.998c0.216-0.134,0.204-0.171-0.375-0.95
		c-0.73-1-3.074-3.775-3.84-4.555c-1.126-1.153-1.72-1.723-2.376-2.299c-0.361-0.334-0.846-0.887-1.078-1.257l-0.42-0.662
		l-0.555,0.299l-0.567,0.307l-0.372-0.581c-0.208-0.312-0.453-0.73-0.555-0.924c-0.295-0.542-3.021-2.372-5.394-3.637
		c-5.962-3.155-11.849-4.41-18.763-4.02c-0.678,0.035-1.754,0.063-2.393,0.044c-3.465-0.08-7.277,0.7-10.674,2.204
		c-0.765,0.33-1.408,0.599-1.436,0.602c-0.051-0.011-0.25-0.612-0.434-1.253c-0.047-0.169-0.162-0.127-0.948,0.374l-0.884,0.575
		l-0.308-0.562c-0.305-0.567-0.315-0.561-0.574-0.358c-0.247,0.195-0.242,0.277,0.105,1.486l0.367,1.281l-1.669,1.118
		c-1.652,1.105-7.733,5.647-10.428,7.785c-0.756,0.612-1.66,1.268-1.994,1.49l-0.615,0.381l-0.382-0.547l-0.383-0.547l-0.536,0.375
		l-0.539,0.392l-0.771-1.246c-0.688-1.113-0.745-1.248-0.553-1.282c0.307-0.061,0.1-0.189-2.197-1.415
		c-1.871-0.977-2.039-1.043-2.317-0.873c-0.3,0.186-0.306,0.175-0.647-0.381l-0.351-0.566l-0.536,0.331l-0.545,0.337
		L124.964,102.721z M74.021,185.016l0.295,0.502l-0.314-0.417l-0.308-0.408l-0.464,0.288l-0.454,0.28l0.285,0.463l0.287,0.464
		l0.505-0.313c0.289-0.178,0.578-0.287,0.646-0.243c0.08,0.036,0.424,0.592,0.762,1.235l0.63,1.176l-0.547,0.31l-0.542,0.293
		l0.362,0.657l0.362,0.658l-0.555,0.344l-0.564,0.349l0.373,0.652c0.213,0.366,0.511,0.895,0.679,1.187l0.307,0.521l-1.114,0.732
		l-1.122,0.735l-0.794-1.117c-0.434-0.613-1.103-1.694-1.486-2.382l-0.704-1.256l0.539-0.347l0.537-0.348l-0.323-0.64l-0.323-0.64
		l0.531-0.34c0.29-0.196,0.517-0.379,0.485-0.431c-0.026-0.043-0.159-0.258-0.293-0.473l-0.254-0.412l-0.561,0.29
		c-0.311,0.164,0.2-0.182,1.152-0.783l1.706-1.085L74.021,185.016z M52.273,213.305l0.32,0.516l0.615-0.38l0.618-0.382l0.42,0.678
		l0.428,0.69l-0.883,0.461c-0.499,0.25-1.055,0.55-1.229,0.656l-0.339,0.211l-0.701-1.132l-0.7-1.133l0.566-0.349l0.565-0.35
		L52.273,213.305z M59.325,211.366l0.701,1.132l-0.517,0.318l-0.513,0.318l-0.313-0.503c-0.176-0.288-0.378-0.522-0.46-0.514
		c-0.067,0-0.298-0.255-0.488-0.563l-0.346-0.556l0.618-0.382l0.618-0.382L59.325,211.366z"/>
	<path fill="#522408" d="M174.053,129.182c0.062,0.031,0.393,0.567,0.72,1.188l0.596,1.125l-0.596,0.369l-0.608,0.375l0.382,0.619
		l0.382,0.617l-0.535,0.332l-0.544,0.336l0.339,0.529l0.356,0.534l1.114-0.688l1.122-0.693l-0.688-1.183l-0.682-1.173l0.556-0.344
		l0.566-0.349l-0.732-1.185l-0.732-1.182l-0.578,0.356C174.151,128.975,173.973,129.144,174.053,129.182z"/>
	<path fill="#522408" d="M123.135,162.189l-0.624,0.442l0.352,0.522l0.363,0.514l-0.568,0.396l-0.565,0.391l0.342,0.558l0.344,0.555
		l0.616-0.338l0.604-0.331l0.364,0.514l0.361,0.519l0.554-0.301l0.555-0.299l1.156,1.802l1.153,1.819l1.803-1.114l1.8-1.113
		l0.351,0.565l0.351,0.566l1.132-0.7l1.131-0.7l0.352,0.565l0.35,0.565l0.617-0.381l0.627-0.387l-0.4-0.579l-0.392-0.567l-0.553,0.3
		l-0.567,0.306l-0.561-0.904c-0.304-0.494-0.806-1.238-1.105-1.651l-0.547-0.729l-1.163,0.607l-1.168,0.62l-0.338-0.546
		l-0.343-0.555l-0.555,0.344l-0.544,0.337l-0.659-0.901c-0.348-0.496-0.882-1.289-1.174-1.765l-0.531-0.853l-1.137,0.732
		C124.284,161.421,123.483,161.944,123.135,162.189z"/>
	<path fill="#522408" d="M158.708,140.19l-0.572,0.412l0.725,1.173l0.732,1.183l-0.566,0.351l-0.564,0.349l0.303,0.495l0.313,0.506
		l1.756-1.001c0.961-0.539,2.299-1.323,2.978-1.743l1.215-0.75l0.73,1.184l0.731,1.183l0.569-0.349l0.565-0.35l0.351,0.565
		l0.35,0.565l1.181-0.732l1.185-0.731l-0.351-0.564l-0.35-0.568l0.62-0.382l0.608-0.376l-0.373-0.666l-0.362-0.659l0.526-0.368
		l0.513-0.362l-0.315-0.516l-0.313-0.504l-0.564,0.352l-0.567,0.349l-0.382-0.618l-0.381-0.617l-0.568,0.351l-0.555,0.345l-0.4-0.58
		l-0.393-0.567l-0.606,0.33l-0.615,0.338l-0.344-0.555l-0.35-0.566l-2.944,1.847C160.597,138.966,159.013,139.974,158.708,140.19z"
		/>
	<path fill="#522408" d="M100.257,181.955l0.337,0.546l-1.183,0.733c-0.65,0.399-1.745,1.091-2.421,1.536l-1.252,0.804l0.319,0.516
		l0.318,0.514l-0.597,0.37l-0.585,0.361l-0.257-0.481l-0.247-0.489l-1.204,0.744l-1.205,0.745l0.33,0.465l0.339,0.474l-0.618,0.426
		l-0.621,0.426l0.375,0.607l0.376,0.607l-0.518,0.364l-0.526,0.366l0.682,1.173l0.688,1.181l0.628-0.388l0.616-0.381l0.346,0.556
		l0.35,0.565l0.565-0.308l0.554-0.3l0.742,1.135l0.751,1.144l1.741-1.075l1.747-1.083l-0.35-0.565l-0.351-0.566l0.621-0.382
		l0.604-0.375l0.388,0.557l0.388,0.556l0.635-0.349c1.215-0.683,2.308-1.356,4.336-2.698l2.034-1.356l-0.676-1.163l-0.675-1.16
		l0.632-0.432l0.621-0.427l-0.348-0.553l-0.349-0.568l0.503-0.313l0.515-0.318l0.362,0.518l0.369,0.525l1.174-0.698l1.173-0.682
		l-0.349-0.565l-0.35-0.568l-0.618,0.383l-0.619,0.382l-0.351-0.567l-0.346-0.567l-0.468,0.287l-0.448,0.279l0.318,0.612
		c0.188,0.355,0.017,0.118-0.388-0.512l-0.727-1.13l1.742-1.162c0.943-0.641,2.496-1.646,3.455-2.236l1.719-1.064l-0.73-1.184
		l-0.734-1.183l-0.565,0.349l-0.566,0.351l-0.35-0.565l-0.349-0.568l-4.118,2.549l-4.117,2.544l0.312,0.505
		c0.179,0.289,0.287,0.577,0.243,0.646c-0.036,0.08-0.595,0.423-1.233,0.765l-1.169,0.622l-0.277-0.454l-0.274-0.441l0.57-0.411
		c0.316-0.225,0.077-0.104-0.578,0.286l-1.145,0.68L100.257,181.955z"/>
	<path fill="#522408" d="M151.857,154.104l0.698,1.175l1.185-0.732l1.182-0.731l-0.311-0.505l-0.305-0.494l-1.185,0.618
		l-1.165,0.621l-0.396-0.55C151.342,153.2,151.479,153.467,151.857,154.104z"/>
	<path fill="#522408" d="M124.458,173.577l0.352,0.567l-1.237,0.764l-1.234,0.764l0.343,0.555l0.351,0.566l-0.516,0.361
		l-0.527,0.369l0.333,0.606l0.337,0.618l-0.554,0.342l-0.566,0.351l0.388,0.625l0.388,0.629l0.479-0.354l0.483-0.342l0.786,1.109
		l0.793,1.12l1.173-0.728l1.173-0.727l-0.351-0.565l-0.351-0.566l0.618-0.381l0.617-0.382l-0.697-1.176
		c-0.378-0.633-0.531-0.924-0.331-0.648l0.378,0.52l0.514-0.316l0.504-0.314l-0.349-0.565l-0.343-0.557l0.578-0.4l0.568-0.394
		l-0.693-1.166l-0.681-1.171l-0.656,0.365l-0.657,0.361l-0.308-0.563l-0.311-0.55l-0.567,0.351l-0.576,0.357L124.458,173.577z"/>
	<path fill="#522408" d="M32.489,241.831l0.346,0.556l0.616-0.338l0.606-0.332l0.37,0.597l0.362,0.586l0.536-0.333l0.535-0.33
		l-0.341-0.617l-0.33-0.604l0.474-0.338l0.464-0.33l-0.347-0.566l-0.346-0.555l-1.647,1.018l-1.645,1.019L32.489,241.831z"/>
	<path fill="#522408" d="M118.037,192.232l0.332,0.606l-0.512,0.273c-0.668,0.373-0.735,0.584-0.346,1.213l0.311,0.502l-0.514,0.318
		l-0.517,0.318l0.382,0.62l0.385,0.617l1.162-0.72l1.152-0.713l-0.363-0.585l-0.369-0.598l2.286-1.484l2.283-1.48l-0.38-0.478
		l-0.38-0.479l0.29,0.492l0.284,0.506l-0.412,0.255l-0.402,0.247l-0.718-1.092l-0.712-1.083l-1.789,1.064l-1.785,1.074
		L118.037,192.232z"/>
	<path fill="#522408" d="M82.498,214.324l0.329,0.649l-0.516,0.362l-0.524,0.368l0.311,0.504l0.312,0.504l0.512-0.274
		c0.281-0.145,1.041-0.615,1.699-1.05l1.184-0.775l-0.383-0.575l-0.383-0.573l0.301,0.551l0.295,0.573l-0.453,0.282l-0.453,0.279
		l-0.369-0.527l-0.361-0.514l-0.554,0.298l-0.558,0.299l-0.361-0.516l-0.372-0.511L82.498,214.324z"/>
</g>
<g id="box" class="fade-in two">
	<g>
		<path fill="#D9853B" d="M385.587,242.402h-6.103c-6.421,0-10.871,5.846-10.871,12.748v16.209c0,6.737,4.396,11.883,10.87,11.883
			h6.104c6.482,0,10.9-5.152,10.9-11.883V255.15C396.487,248.255,392.017,242.402,385.587,242.402z"/>
		<path fill="#D9853B" d="M170.523,212.087v82.303h298.339v-82.303H170.523z M241.451,284.894c0,1.892-1.351,3.159-3.127,3.159
			c-1.854,0-3.158-1.29-3.158-2.961v-29.261h-37.553v29.063c0,1.878-1.304,3.159-3.127,3.159c-1.776,0-3.127-1.277-3.127-2.961
			v-64.076c0-1.684,1.351-2.975,3.127-2.975c1.823,0,3.127,1.295,3.127,3.173v28.865h37.553v-29.062
			c0-1.671,1.304-2.975,3.158-2.975c1.776,0,3.127,1.281,3.127,3.172V284.894z M264.144,285.29c0,1.648-1.242,2.767-3.012,2.767
			c-1.816,0-2.916-1.163-2.916-2.767v-45.234c0-1.657,1.082-2.93,2.916-2.93c1.721,0,3.012,1.231,3.012,2.931V285.29z
			 M264.144,223.345c0,1.603-1.224,2.767-3.012,2.767c-1.834,0-2.916-1.206-2.916-2.767v-1.937c0-1.591,1.082-2.864,2.916-2.864
			c1.721,0,3.012,1.23,3.012,2.863V223.345z M315.639,285.193c0,1.452-1.355,2.864-3.108,2.864c-1.737,0-2.886-1.451-2.886-2.864
			v-31.291c0-6.743-4.096-11.309-9.963-11.309h-16.297v42.436c0,1.73-1.291,3.027-3.012,3.027c-1.834,0-2.983-1.451-2.983-2.864
			v-43.593c0-2.284,1.722-4.445,4.564-4.445l17.727,0.002c8.499,0,15.959,6.273,15.959,16.746V285.193z M347.29,283.362h3.712
			c1.802,0,2.982,1.301,2.982,2.93c0,1.553-1.148,2.765-2.982,2.765h-3.712c-10.957,0-15.284-5.971-15.284-16.684v-29.579h-5.311
			c-1.721,0-2.945-1.164-2.945-2.768c0-1.7,1.224-2.864,2.945-2.864h5.311v-8.415c0-1.59,1.274-2.864,3.012-2.864
			c1.755,0,2.983,1.287,2.983,2.863v8.417h12.838c1.948,0,3.145,1.258,3.145,2.863c0,1.576-1.13,2.768-2.982,2.768h-13.001v29.579
			C338.001,279.781,340.175,283.362,347.29,283.362z M402.421,271.028c0,10.465-7.327,17.428-16.835,17.428h-6.103
			c-9.538,0-16.865-6.962-16.865-17.428v-15.38c0-10.493,7.152-18.428,16.865-18.428h6.103c9.683,0,16.835,7.935,16.835,18.428
			V271.028z M452.336,285.193c0,1.452-1.355,2.864-3.108,2.864c-1.737,0-2.886-1.451-2.886-2.864v-31.291
			c0-6.743-4.096-11.309-9.963-11.309h-16.297v42.436c0,1.73-1.291,3.027-3.012,3.027c-1.834,0-2.983-1.451-2.983-2.864v-43.593
			c0-2.284,1.722-4.445,4.564-4.445l17.727,0.002c8.499,0,15.959,6.273,15.959,16.746V285.193z"/>
		<path fill="#FFFFFF" d="M238.324,218.042c-1.854,0-3.158,1.304-3.158,2.975v29.062h-37.553v-28.865
			c0-1.878-1.304-3.173-3.127-3.173c-1.776,0-3.127,1.291-3.127,2.975v64.076c0,1.684,1.351,2.961,3.127,2.961
			c1.823,0,3.127-1.281,3.127-3.159v-29.063h37.553v29.261c0,1.671,1.304,2.961,3.158,2.961c1.776,0,3.127-1.267,3.127-3.159v-63.68
			C241.451,219.323,240.1,218.042,238.324,218.042z"/>
		<path fill="#FFFFFF" d="M261.132,218.544c-1.834,0-2.916,1.273-2.916,2.864v1.937c0,1.561,1.082,2.767,2.916,2.767
			c1.788,0,3.012-1.164,3.012-2.767v-1.938C264.144,219.774,262.853,218.544,261.132,218.544z"/>
		<path fill="#FFFFFF" d="M261.132,237.126c-1.834,0-2.916,1.273-2.916,2.93v45.234c0,1.604,1.1,2.767,2.916,2.767
			c1.77,0,3.012-1.119,3.012-2.767v-45.233C264.144,238.357,262.853,237.126,261.132,237.126z"/>
		<path fill="#FFFFFF" d="M299.68,237.156l-17.727-0.002c-2.842,0-4.564,2.161-4.564,4.445v43.593c0,1.413,1.149,2.864,2.983,2.864
			c1.721,0,3.012-1.297,3.012-3.027v-42.436h16.297c5.867,0,9.963,4.565,9.963,11.309v31.291c0,1.413,1.149,2.864,2.886,2.864
			c1.753,0,3.108-1.412,3.108-2.864v-31.291C315.639,243.429,308.178,237.156,299.68,237.156z"/>
		<path fill="#FFFFFF" d="M351.002,242.794c1.852,0,2.982-1.192,2.982-2.768c0-1.605-1.197-2.863-3.145-2.863h-12.838v-8.417
			c0-1.576-1.228-2.863-2.983-2.863c-1.738,0-3.012,1.274-3.012,2.864v8.415h-5.311c-1.721,0-2.945,1.164-2.945,2.864
			c0,1.604,1.224,2.768,2.945,2.768h5.311v29.579c0,10.713,4.327,16.684,15.284,16.684h3.712c1.834,0,2.982-1.212,2.982-2.765
			c0-1.629-1.18-2.93-2.982-2.93h-3.712c-7.115,0-9.289-3.581-9.289-10.989v-29.579H351.002z"/>
		<path fill="#FFFFFF" d="M385.586,237.22h-6.103c-9.712,0-16.865,7.935-16.865,18.428v15.38c0,10.465,7.327,17.428,16.865,17.428
			h6.103c9.508,0,16.835-6.962,16.835-17.428v-15.38C402.421,245.155,395.269,237.22,385.586,237.22z M396.487,271.359
			c0,6.73-4.417,11.883-10.9,11.883h-6.104c-6.474,0-10.87-5.146-10.87-11.883V255.15c0-6.901,4.449-12.748,10.871-12.748h6.103
			c6.43,0,10.9,5.853,10.9,12.748V271.359z"/>
		<path fill="#FFFFFF" d="M436.377,237.156l-17.727-0.002c-2.842,0-4.564,2.161-4.564,4.445v43.593c0,1.413,1.149,2.864,2.983,2.864
			c1.721,0,3.012-1.297,3.012-3.027v-42.436h16.297c5.867,0,9.963,4.565,9.963,11.309v31.291c0,1.413,1.149,2.864,2.886,2.864
			c1.753,0,3.108-1.412,3.108-2.864v-31.291C452.336,243.429,444.876,237.156,436.377,237.156z"/>
	</g>
	<g>
		<path fill="none" stroke="#ECECEA" stroke-width="2" d="M483.68,221.674c0-1.684,1.351-2.975,3.127-2.975
			c1.854,0,3.158,1.304,3.158,2.975v61.132h29.573c1.966,0,3.325,1.246,3.325,2.945c0,1.684-1.351,2.961-3.127,2.961h-31.147
			c-2.77,0-4.909-1.967-4.909-4.681V221.674z"/>
		<path fill="none" stroke="#ECECEA" stroke-width="2" d="M536.195,243.255c-1.95,0-3.05-1.163-3.05-2.738
			c0-1.452,1.065-2.701,2.886-2.701h17.951c8.062,0,13.866,6.37,13.866,14.616v32.063c0,2.428-1.861,4.222-4.371,4.222h-18.5
			c-8.152,0-14.704-6.446-14.704-14.393c0-7.909,6.533-14.557,14.705-14.557h16.876v-6.98c0-5.428-3.221-9.535-8.202-9.535
			L536.195,243.255z M561.853,283.117v-17.776h-16.876c-4.696,0-8.807,4.132-8.807,8.985c0,4.835,4.089,8.792,8.807,8.792H561.853z"
			/>
		<path fill="none" stroke="#ECECEA" stroke-width="2" d="M580.309,221.576c0-1.646,1.336-2.863,2.982-2.863
			c1.721,0,3.012,1.23,3.012,2.863v16.239h16.104c8.499,0,15.959,6.273,15.959,16.746v15.271c0,7.364-4.177,18.884-16.152,18.884
			h-17.342c-2.487,0-4.563-2.076-4.563-4.415V221.576z M586.304,283.019h15.911c5.634,0,10.158-5.471,10.158-13.476v-14.981
			c0-6.75-4.744-11.309-9.964-11.309h-16.104V283.019z"/>
	</g>
</g>
</svg>
