<?xml version="1.0" encoding="utf-8"?>
<!-- Generator: Adobe Illustrator 16.0.4, SVG Export Plug-In . SVG Version: 6.00 Build 0)  -->
<!DOCTYPE svg PUBLIC "-//W3C//DTD SVG 1.1 Tiny//EN" "http://www.w3.org/Graphics/SVG/1.1/DTD/svg11-tiny.dtd">
<svg version="1.1" baseProfile="tiny" xmlns="http://www.w3.org/2000/svg" xmlns:xlink="http://www.w3.org/1999/xlink" x="0px"
	 y="0px" width="100%" height="35vh" viewBox="0 0 960 560" xml:space="preserve">
<g id="box_1_">
	<g id="box" class="box">
		<rect x="5.5" y="286.5" fill="none" stroke="#ECECEA" stroke-width="2" stroke-miterlimit="10" width="950" height="197"/>
	</g>
</g>
<g id="transcriptomics" class="tag-line">
	<rect x="5.5" y="351" fill="none" width="950" height="132.5"/>

		<text transform="matrix(1 0 0 1 33.5854 407.7988)" fill="#ECECEA" stroke="#999999" stroke-width="2" stroke-miterlimit="10" font-family="'MyriadPro-Regular'" font-size="80">s</text>

		<text transform="matrix(1 0 0 1 65.2651 407.7988)" fill="#ECECEA" stroke="#999999" stroke-width="2" stroke-miterlimit="10" font-family="'MyriadPro-Regular'" font-size="80">a</text>

		<text transform="matrix(1 0 0 1 103.8247 407.7988)" fill="#ECECEA" stroke="#999999" stroke-width="2" stroke-miterlimit="10" font-family="'MyriadPro-Regular'" font-size="80">l</text>

		<text transform="matrix(1 0 0 1 122.7041 407.7988)" fill="#ECECEA" stroke="#999999" stroke-width="2" stroke-miterlimit="10" font-family="'MyriadPro-Regular'" font-size="80">m</text>

		<text transform="matrix(1 0 0 1 189.4238 407.7988)" fill="#ECECEA" stroke="#999999" stroke-width="2" stroke-miterlimit="10" font-family="'MyriadPro-Regular'" font-size="80">o</text>

		<text transform="matrix(1 0 0 1 233.3438 407.7988)" fill="#ECECEA" stroke="#999999" stroke-width="2" stroke-miterlimit="10" font-family="'MyriadPro-Regular'" font-size="80">n</text>

		<text transform="matrix(1 0 0 1 277.7432 407.7988)" fill="#ECECEA" stroke="#999999" stroke-width="2" stroke-miterlimit="10" font-family="'MyriadPro-Regular'" font-size="80">e</text>

		<text transform="matrix(1 0 0 1 317.8223 407.7988)" fill="#ECECEA" stroke="#999999" stroke-width="2" stroke-miterlimit="10" font-family="'MyriadPro-Regular'" font-size="80">l</text>

		<text transform="matrix(1 0 0 1 336.7017 407.7988)" fill="#ECECEA" stroke="#999999" stroke-width="2" stroke-miterlimit="10" font-family="'MyriadPro-Regular'" font-size="80">l</text>

		<text transform="matrix(1 0 0 1 355.5811 407.7988)" fill="#ECECEA" stroke="#999999" stroke-width="2" stroke-miterlimit="10" font-family="'MyriadPro-Regular'" font-size="80">a</text>

		<text transform="matrix(1 0 0 1 394.1406 407.7988)" fill="#ECECEA" stroke="#999999" stroke-width="2" stroke-miterlimit="10" font-family="'MyriadPro-Regular'" font-size="80"> </text>

		<text transform="matrix(1 0 0 1 411.0996 407.7988)" fill="#ECECEA" stroke="#999999" stroke-width="2" stroke-miterlimit="10" font-family="'MyriadPro-Regular'" font-size="80">t</text>

		<text transform="matrix(1 0 0 1 437.5791 407.7988)" fill="#ECECEA" stroke="#999999" stroke-width="2" stroke-miterlimit="10" font-family="'MyriadPro-Regular'" font-size="80">r</text>

		<text transform="matrix(1 0 0 1 463.3398 407.7988)" fill="#ECECEA" stroke="#999999" stroke-width="2" stroke-miterlimit="10" font-family="'MyriadPro-Regular'" font-size="80">a</text>

		<text transform="matrix(1 0 0 1 501.8994 407.7988)" fill="#ECECEA" stroke="#999999" stroke-width="2" stroke-miterlimit="10" font-family="'MyriadPro-Regular'" font-size="80">n</text>

		<text transform="matrix(1 0 0 1 546.2988 407.7988)" fill="#ECECEA" stroke="#999999" stroke-width="2" stroke-miterlimit="10" font-family="'MyriadPro-Regular'" font-size="80">s</text>

		<text transform="matrix(1 0 0 1 577.9785 407.7988)" fill="#ECECEA" stroke="#999999" stroke-width="2" stroke-miterlimit="10" font-family="'MyriadPro-Regular'" font-size="80">c</text>

		<text transform="matrix(1 0 0 1 613.8184 407.7988)" fill="#ECECEA" stroke="#999999" stroke-width="2" stroke-miterlimit="10" font-family="'MyriadPro-Regular'" font-size="80">r</text>

		<text transform="matrix(1 0 0 1 640.2979 407.7988)" fill="#ECECEA" stroke="#999999" stroke-width="2" stroke-miterlimit="10" font-family="'MyriadPro-Regular'" font-size="80">i</text>

		<text transform="matrix(1 0 0 1 659.0176 407.7988)" fill="#ECECEA" stroke="#999999" stroke-width="2" stroke-miterlimit="10" font-family="'MyriadPro-Regular'" font-size="80">p</text>

		<text transform="matrix(1 0 0 1 704.5361 407.7988)" fill="#ECECEA" stroke="#999999" stroke-width="2" stroke-miterlimit="10" font-family="'MyriadPro-Regular'" font-size="80">t</text>

		<text transform="matrix(1 0 0 1 730.5352 407.7988)" fill="#ECECEA" stroke="#999999" stroke-width="2" stroke-miterlimit="10" font-family="'MyriadPro-Regular'" font-size="80">o</text>

		<text transform="matrix(1 0 0 1 774.4551 407.7988)" fill="#ECECEA" stroke="#999999" stroke-width="2" stroke-miterlimit="10" font-family="'MyriadPro-Regular'" font-size="80">m</text>

		<text transform="matrix(1 0 0 1 841.1758 407.7988)" fill="#ECECEA" stroke="#999999" stroke-width="2" stroke-miterlimit="10" font-family="'MyriadPro-Regular'" font-size="80">i</text>

		<text transform="matrix(1 0 0 1 859.8945 407.7988)" fill="#ECECEA" stroke="#999999" stroke-width="2" stroke-miterlimit="10" font-family="'MyriadPro-Regular'" font-size="80">c</text>

		<text transform="matrix(1 0 0 1 895.7344 407.7988)" fill="#ECECEA" stroke="#999999" stroke-width="2" stroke-miterlimit="10" font-family="'MyriadPro-Regular'" font-size="80">s</text>
</g>
<g id="genomics" class="tag-line">
	<rect x="5.5" y="351" fill="none" width="950" height="132.5"/>

		<text transform="matrix(1 0 0 1 100.4639 407.7988)" fill="#ECECEA" stroke="#999999" stroke-width="2" stroke-miterlimit="10" font-family="'MyriadPro-Regular'" font-size="80">c</text>

		<text transform="matrix(1 0 0 1 135.8242 407.7988)" fill="#ECECEA" stroke="#999999" stroke-width="2" stroke-miterlimit="10" font-family="'MyriadPro-Regular'" font-size="80">o</text>

		<text transform="matrix(1 0 0 1 179.7441 407.7988)" fill="#ECECEA" stroke="#999999" stroke-width="2" stroke-miterlimit="10" font-family="'MyriadPro-Regular'" font-size="80">m</text>

		<text transform="matrix(1 0 0 1 246.4639 407.7988)" fill="#ECECEA" stroke="#999999" stroke-width="2" stroke-miterlimit="10" font-family="'MyriadPro-Regular'" font-size="80">p</text>

		<text transform="matrix(1 0 0 1 291.9824 407.7988)" fill="#ECECEA" stroke="#999999" stroke-width="2" stroke-miterlimit="10" font-family="'MyriadPro-Regular'" font-size="80">a</text>

		<text transform="matrix(1 0 0 1 330.542 407.7988)" fill="#ECECEA" stroke="#999999" stroke-width="2" stroke-miterlimit="10" font-family="'MyriadPro-Regular'" font-size="80">r</text>

		<text transform="matrix(1 0 0 1 356.3022 407.7988)" fill="#ECECEA" stroke="#999999" stroke-width="2" stroke-miterlimit="10" font-family="'MyriadPro-Regular'" font-size="80">a</text>

		<text transform="matrix(1 0 0 1 394.542 407.7988)" fill="#ECECEA" stroke="#999999" stroke-width="2" stroke-miterlimit="10" font-family="'MyriadPro-Regular'" font-size="80">t</text>

		<text transform="matrix(1 0 0 1 421.0215 407.7988)" fill="#ECECEA" stroke="#999999" stroke-width="2" stroke-miterlimit="10" font-family="'MyriadPro-Regular'" font-size="80">i</text>

		<text transform="matrix(1 0 0 1 439.7407 407.7988)" fill="#ECECEA" stroke="#999999" stroke-width="2" stroke-miterlimit="10" font-family="'MyriadPro-Regular'" font-size="80">v</text>

		<text transform="matrix(1 0 0 1 477.4199 407.7988)" fill="#ECECEA" stroke="#999999" stroke-width="2" stroke-miterlimit="10" font-family="'MyriadPro-Regular'" font-size="80">e</text>

		<text transform="matrix(1 0 0 1 517.5 407.7988)" fill="#ECECEA" stroke="#999999" stroke-width="2" stroke-miterlimit="10" font-family="'MyriadPro-Regular'" font-size="80"> </text>

		<text transform="matrix(1 0 0 1 534.459 407.7988)" fill="#ECECEA" stroke="#999999" stroke-width="2" stroke-miterlimit="10" font-family="'MyriadPro-Regular'" font-size="80">g</text>

		<text transform="matrix(1 0 0 1 579.1777 407.7988)" fill="#ECECEA" stroke="#999999" stroke-width="2" stroke-miterlimit="10" font-family="'MyriadPro-Regular'" font-size="80">e</text>

		<text transform="matrix(1 0 0 1 619.2578 407.7988)" fill="#ECECEA" stroke="#999999" stroke-width="2" stroke-miterlimit="10" font-family="'MyriadPro-Regular'" font-size="80">n</text>

		<text transform="matrix(1 0 0 1 663.6572 407.7988)" fill="#ECECEA" stroke="#999999" stroke-width="2" stroke-miterlimit="10" font-family="'MyriadPro-Regular'" font-size="80">o</text>

		<text transform="matrix(1 0 0 1 707.5771 407.7988)" fill="#ECECEA" stroke="#999999" stroke-width="2" stroke-miterlimit="10" font-family="'MyriadPro-Regular'" font-size="80">m</text>

		<text transform="matrix(1 0 0 1 774.2969 407.7988)" fill="#ECECEA" stroke="#999999" stroke-width="2" stroke-miterlimit="10" font-family="'MyriadPro-Regular'" font-size="80">i</text>

		<text transform="matrix(1 0 0 1 793.0166 407.7988)" fill="#ECECEA" stroke="#999999" stroke-width="2" stroke-miterlimit="10" font-family="'MyriadPro-Regular'" font-size="80">c</text>

		<text transform="matrix(1 0 0 1 828.8564 407.7988)" fill="#ECECEA" stroke="#999999" stroke-width="2" stroke-miterlimit="10" font-family="'MyriadPro-Regular'" font-size="80">s</text>
</g>
<g id="infection" class="tag-line">
	<rect x="5.5" y="351" fill="none" width="950" height="132.5"/>

		<text transform="matrix(1 0 0 1 197.3848 407.7988)" fill="#ECECEA" stroke="#999999" stroke-width="2" stroke-miterlimit="10" font-family="'MyriadPro-Regular'" font-size="80">i</text>

		<text transform="matrix(1 0 0 1 216.1045 407.7988)" fill="#ECECEA" stroke="#999999" stroke-width="2" stroke-miterlimit="10" font-family="'MyriadPro-Regular'" font-size="80">n</text>

		<text transform="matrix(1 0 0 1 260.5039 407.7988)" fill="#ECECEA" stroke="#999999" stroke-width="2" stroke-miterlimit="10" font-family="'MyriadPro-Regular'" font-size="80">f</text>

		<text transform="matrix(1 0 0 1 282.8242 407.7988)" fill="#ECECEA" stroke="#999999" stroke-width="2" stroke-miterlimit="10" font-family="'MyriadPro-Regular'" font-size="80">e</text>

		<text transform="matrix(1 0 0 1 322.9033 407.7988)" fill="#ECECEA" stroke="#999999" stroke-width="2" stroke-miterlimit="10" font-family="'MyriadPro-Regular'" font-size="80">c</text>

		<text transform="matrix(1 0 0 1 359.7822 407.7988)" fill="#ECECEA" stroke="#999999" stroke-width="2" stroke-miterlimit="10" font-family="'MyriadPro-Regular'" font-size="80">t</text>

		<text transform="matrix(1 0 0 1 386.2617 407.7988)" fill="#ECECEA" stroke="#999999" stroke-width="2" stroke-miterlimit="10" font-family="'MyriadPro-Regular'" font-size="80">i</text>

		<text transform="matrix(1 0 0 1 404.9814 407.7988)" fill="#ECECEA" stroke="#999999" stroke-width="2" stroke-miterlimit="10" font-family="'MyriadPro-Regular'" font-size="80">o</text>

		<text transform="matrix(1 0 0 1 448.9014 407.7988)" fill="#ECECEA" stroke="#999999" stroke-width="2" stroke-miterlimit="10" font-family="'MyriadPro-Regular'" font-size="80">n</text>

		<text transform="matrix(1 0 0 1 493.3008 407.7988)" fill="#ECECEA" stroke="#999999" stroke-width="2" stroke-miterlimit="10" font-family="'MyriadPro-Regular'" font-size="80"> </text>

		<text transform="matrix(1 0 0 1 510.2598 407.7988)" fill="#ECECEA" stroke="#999999" stroke-width="2" stroke-miterlimit="10" font-family="'MyriadPro-Regular'" font-size="80">b</text>

		<text transform="matrix(1 0 0 1 555.7783 407.7988)" fill="#ECECEA" stroke="#999999" stroke-width="2" stroke-miterlimit="10" font-family="'MyriadPro-Regular'" font-size="80">i</text>

		<text transform="matrix(1 0 0 1 574.498 407.7988)" fill="#ECECEA" stroke="#999999" stroke-width="2" stroke-miterlimit="10" font-family="'MyriadPro-Regular'" font-size="80">o</text>

		<text transform="matrix(1 0 0 1 618.418 407.7988)" fill="#ECECEA" stroke="#999999" stroke-width="2" stroke-miterlimit="10" font-family="'MyriadPro-Regular'" font-size="80">l</text>

		<text transform="matrix(1 0 0 1 637.2969 407.7988)" fill="#ECECEA" stroke="#999999" stroke-width="2" stroke-miterlimit="10" font-family="'MyriadPro-Regular'" font-size="80">o</text>

		<text transform="matrix(1 0 0 1 681.2168 407.7988)" fill="#ECECEA" stroke="#999999" stroke-width="2" stroke-miterlimit="10" font-family="'MyriadPro-Regular'" font-size="80">g</text>

		<text transform="matrix(1 0 0 1 725.9355 407.7988)" fill="#ECECEA" stroke="#999999" stroke-width="2" stroke-miterlimit="10" font-family="'MyriadPro-Regular'" font-size="80">y</text>
</g>
</svg>
